<mxfile host="app.diagrams.net" agent="Mozilla/5.0 (Windows NT 10.0; Win64; x64) AppleWebKit/537.36 (KHTML, like Gecko) Chrome/139.0.0.0 Safari/537.36" version="28.1.0">
  <diagram name="Page-1" id="MVXc20_D-z_lwvVZRDvm">
    <mxGraphModel dx="872" dy="431" grid="1" gridSize="10" guides="1" tooltips="1" connect="1" arrows="1" fold="1" page="1" pageScale="1" pageWidth="850" pageHeight="1100" math="0" shadow="0">
      <root>
        <mxCell id="0" />
        <mxCell id="1" parent="0" />
        <mxCell id="ZkdDO6waioAA_YHFzviO-1" value="" style="rounded=0;whiteSpace=wrap;html=1;fillColor=#f5f5f5;gradientColor=#b3b3b3;strokeColor=#666666;" vertex="1" parent="1">
          <mxGeometry x="130" y="150" width="220" height="140" as="geometry" />
        </mxCell>
        <mxCell id="ZkdDO6waioAA_YHFzviO-2" value="" style="sketch=0;outlineConnect=0;fillColor=#6a00ff;strokeColor=#3700CC;dashed=0;verticalLabelPosition=bottom;verticalAlign=top;align=center;html=1;fontSize=12;fontStyle=0;aspect=fixed;pointerEvents=1;shape=mxgraph.aws4.source_code;fontColor=#ffffff;" vertex="1" parent="1">
          <mxGeometry x="150" y="181" width="57" height="78" as="geometry" />
        </mxCell>
        <mxCell id="ZkdDO6waioAA_YHFzviO-4" style="edgeStyle=orthogonalEdgeStyle;rounded=0;orthogonalLoop=1;jettySize=auto;html=1;" edge="1" parent="1" source="ZkdDO6waioAA_YHFzviO-3" target="ZkdDO6waioAA_YHFzviO-2">
          <mxGeometry relative="1" as="geometry" />
        </mxCell>
        <mxCell id="ZkdDO6waioAA_YHFzviO-6" style="edgeStyle=orthogonalEdgeStyle;rounded=0;orthogonalLoop=1;jettySize=auto;html=1;entryX=0.5;entryY=1;entryDx=0;entryDy=0;" edge="1" parent="1" source="ZkdDO6waioAA_YHFzviO-3" target="ZkdDO6waioAA_YHFzviO-5">
          <mxGeometry relative="1" as="geometry" />
        </mxCell>
        <mxCell id="ZkdDO6waioAA_YHFzviO-3" value="&lt;b&gt;scanner agent&lt;/b&gt;" style="rounded=1;whiteSpace=wrap;html=1;fillColor=#d5e8d4;gradientColor=#97d077;strokeColor=#82b366;" vertex="1" parent="1">
          <mxGeometry x="250" y="200" width="90" height="40" as="geometry" />
        </mxCell>
        <mxCell id="ZkdDO6waioAA_YHFzviO-8" style="edgeStyle=orthogonalEdgeStyle;rounded=0;orthogonalLoop=1;jettySize=auto;html=1;entryX=0.5;entryY=0;entryDx=0;entryDy=0;" edge="1" parent="1" source="ZkdDO6waioAA_YHFzviO-5" target="ZkdDO6waioAA_YHFzviO-1">
          <mxGeometry relative="1" as="geometry" />
        </mxCell>
        <mxCell id="ZkdDO6waioAA_YHFzviO-5" value="&lt;b&gt;Scanning Server&lt;/b&gt;&lt;div&gt;&lt;b&gt;Analyse results&lt;/b&gt;&lt;/div&gt;" style="rounded=0;whiteSpace=wrap;html=1;" vertex="1" parent="1">
          <mxGeometry x="440" y="40" width="150" height="80" as="geometry" />
        </mxCell>
        <mxCell id="ZkdDO6waioAA_YHFzviO-7" value="&lt;b&gt;results&lt;/b&gt;" style="text;html=1;align=center;verticalAlign=middle;resizable=0;points=[];autosize=1;strokeColor=none;fillColor=none;" vertex="1" parent="1">
          <mxGeometry x="380" y="218" width="60" height="30" as="geometry" />
        </mxCell>
        <mxCell id="ZkdDO6waioAA_YHFzviO-9" value="&lt;b&gt;Jenkins&lt;/b&gt;" style="text;html=1;align=center;verticalAlign=middle;resizable=0;points=[];autosize=1;strokeColor=none;fillColor=none;" vertex="1" parent="1">
          <mxGeometry x="207" y="151" width="70" height="30" as="geometry" />
        </mxCell>
        <mxCell id="ZkdDO6waioAA_YHFzviO-10" value="&lt;b&gt;Quality Gates&lt;/b&gt;" style="text;html=1;align=center;verticalAlign=middle;resizable=0;points=[];autosize=1;strokeColor=none;fillColor=none;" vertex="1" parent="1">
          <mxGeometry x="270" y="78" width="100" height="30" as="geometry" />
        </mxCell>
      </root>
    </mxGraphModel>
  </diagram>
</mxfile>
